# xmcd
#
# Track frame offsets: 
#        150
#        48333
#        68176
#        109345
#        150081
#        199508
#
# Disc length: 3173 seconds
#
# Revision: 0
# Processed by: cddbd v1.5.2PL0 Copyright (c) Steve Scherf et al.
# Submitted via: ExactAudioCopy v1.2
#
DISCID=440c6306
DTITLE=Michael Kiwanuka - Out Loud!
DYEAR=2018
DGENRE=Soul
TTITLE0=Cold Little Heart
TTITLE1=One More Night
TTITLE2=Black Man In A White World
TTITLE3=Tell Me A Tale
TTITLE4=Father’s Child
TTITLE5=Love And Hate
EXTD=
EXTT0=
EXTT1=
EXTT2=
EXTT3=
EXTT4=
EXTT5=
PLAYORDER=
